<svg xmlns="http://www.w3.org/2000/svg" version="1.1" xmlns:xlink="http://www.w3.org/1999/xlink" xmlns:svgjs="http://svgjs.dev/svgjs" viewBox="0 0 2400 800"><g fill="hsl(235, 75%, 20%)" transform="matrix(1,0,0,1,4.3314208984375,288.3692283630371)"><path d="M-10,10C92.08333333333334,8.958333333333334,277.9166666666667,6.041666666666667,480,5C682.0833333333333,3.958333333333333,760,3.958333333333333,960,5C1160,6.041666666666667,1240,10.208333333333334,1440,10C1640,9.791666666666666,1720,2.75,1920,4C2120,5.25,2247.9166666666665,-66.5,2400,16C2552.0833333333335,98.5,3254.1666666666665,215.83333333333331,2650,400C2045.8333333333335,584.1666666666667,156.25,795.8333333333334,-500,900" transform="matrix(1,0,0,1,0,49)" opacity="0.00"></path><path d="M-10,10C92.08333333333334,8.958333333333334,277.9166666666667,6.041666666666667,480,5C682.0833333333333,3.958333333333333,760,3.958333333333333,960,5C1160,6.041666666666667,1240,10.208333333333334,1440,10C1640,9.791666666666666,1720,2.75,1920,4C2120,5.25,2247.9166666666665,-66.5,2400,16C2552.0833333333335,98.5,3254.1666666666665,215.83333333333331,2650,400C2045.8333333333335,584.1666666666667,156.25,795.8333333333334,-500,900" transform="matrix(1,0,0,1,0,98)" opacity="1.00"></path></g></svg>